<svg width="975" height="396" viewBox="0 0 975 396" fill="none" xmlns="http://www.w3.org/2000/svg">
    <rect x="18" width="957" height="396" fill="black"/>
    <circle cx="175.5" cy="203.5" r="124.5" fill="#B1D576"/>
    <circle cx="175" cy="203" r="88" fill="black"/>
    <path d="M159.217 194.935L39.779 263.457L40.1556 125.76L159.217 194.935Z" fill="black"/>
    <circle cx="504.5" cy="203.5" r="123.5" fill="#B1D576" fill-opacity="0.4" stroke="#B1D576" stroke-width="2"/>
    <circle cx="504" cy="203" r="87" fill="black" fill-opacity="0.4" stroke="#D5C076" stroke-width="2"/>
    <path d="M370.151 127.494L486.217 194.929L369.784 261.728L370.151 127.494Z" fill="black" fill-opacity="0.4" stroke="#76D5C4" stroke-width="2"/>
    <rect x="663" width="312" height="396" fill="white"/>
    <circle cx="833.5" cy="203.5" r="124.5" fill="#B1D576"/>
    <circle cx="833" cy="203" r="88" fill="black"/>
    <path d="M817.217 194.935L697.779 263.457L698.156 125.76L817.217 194.935Z" fill="black"/>
    <path d="M178.238 375H174.605V350.918L167.32 353.594V350.312L177.672 346.426H178.238V375Z" fill="white"/>
    <path d="M508.996 375H490.363V372.402L500.207 361.465C501.665 359.811 502.668 358.47 503.215 357.441C503.775 356.4 504.055 355.326 504.055 354.219C504.055 352.734 503.605 351.517 502.707 350.566C501.809 349.616 500.611 349.141 499.113 349.141C497.316 349.141 495.917 349.655 494.914 350.684C493.924 351.699 493.43 353.118 493.43 354.941H489.816C489.816 352.324 490.656 350.208 492.336 348.594C494.029 346.979 496.288 346.172 499.113 346.172C501.757 346.172 503.846 346.868 505.383 348.262C506.919 349.642 507.688 351.484 507.688 353.789C507.688 356.589 505.904 359.922 502.336 363.789L494.719 372.051H508.996V375Z" fill="white"/>
    <path d="M825.617 359.023H828.332C830.038 358.997 831.379 358.548 832.355 357.676C833.332 356.803 833.82 355.625 833.82 354.141C833.82 350.807 832.16 349.141 828.84 349.141C827.277 349.141 826.027 349.59 825.09 350.488C824.165 351.374 823.703 352.552 823.703 354.023H820.09C820.09 351.771 820.91 349.902 822.551 348.418C824.204 346.921 826.301 346.172 828.84 346.172C831.522 346.172 833.625 346.882 835.148 348.301C836.672 349.72 837.434 351.693 837.434 354.219C837.434 355.456 837.03 356.654 836.223 357.812C835.428 358.971 834.341 359.837 832.961 360.41C834.523 360.905 835.728 361.725 836.574 362.871C837.434 364.017 837.863 365.417 837.863 367.07C837.863 369.622 837.03 371.647 835.363 373.145C833.697 374.642 831.529 375.391 828.859 375.391C826.19 375.391 824.016 374.668 822.336 373.223C820.669 371.777 819.836 369.87 819.836 367.5H823.469C823.469 368.997 823.957 370.195 824.934 371.094C825.91 371.992 827.219 372.441 828.859 372.441C830.604 372.441 831.939 371.986 832.863 371.074C833.788 370.163 834.25 368.854 834.25 367.148C834.25 365.495 833.742 364.225 832.727 363.34C831.711 362.454 830.246 361.999 828.332 361.973H825.617V359.023Z" fill="#222222"/>
</svg>
