<svg width="719" height="443" viewBox="0 0 719 443" fill="none" xmlns="http://www.w3.org/2000/svg">
<rect width="719" height="443" fill="#222222"/>
<circle cx="206.5" cy="90.5" r="30.5" fill="#C4C4C4"/>
<path d="M209.402 93.5469H202.254L200.648 98H198.328L204.844 80.9375H206.812L213.34 98H211.031L209.402 93.5469ZM202.934 91.6953H208.734L205.828 83.7148L202.934 91.6953Z" fill="black"/>
<circle cx="358.5" cy="219.5" r="30.5" fill="#C4C4C4"/>
<circle cx="358.5" cy="219.5" r="30.5" fill="#C4C4C4"/>
<path d="M364.531 221.586C364.32 223.391 363.652 224.785 362.527 225.77C361.41 226.746 359.922 227.234 358.062 227.234C356.047 227.234 354.43 226.512 353.211 225.066C352 223.621 351.395 221.688 351.395 219.266V217.625C351.395 216.039 351.676 214.645 352.238 213.441C352.809 212.238 353.613 211.316 354.652 210.676C355.691 210.027 356.895 209.703 358.262 209.703C360.074 209.703 361.527 210.211 362.621 211.227C363.715 212.234 364.352 213.633 364.531 215.422H362.27C362.074 214.062 361.648 213.078 360.992 212.469C360.344 211.859 359.434 211.555 358.262 211.555C356.824 211.555 355.695 212.086 354.875 213.148C354.062 214.211 353.656 215.723 353.656 217.684V219.336C353.656 221.188 354.043 222.66 354.816 223.754C355.59 224.848 356.672 225.395 358.062 225.395C359.312 225.395 360.27 225.113 360.934 224.551C361.605 223.98 362.051 222.992 362.27 221.586H364.531Z" fill="black"/>
<circle cx="510.5" cy="219.5" r="30.5" fill="#C4C4C4"/>
<circle cx="510.5" cy="219.5" r="30.5" fill="#C4C4C4"/>
<path d="M503.98 227V209.938H508.797C510.281 209.938 511.594 210.266 512.734 210.922C513.875 211.578 514.754 212.512 515.371 213.723C515.996 214.934 516.312 216.324 516.32 217.895V218.984C516.32 220.594 516.008 222.004 515.383 223.215C514.766 224.426 513.879 225.355 512.723 226.004C511.574 226.652 510.234 226.984 508.703 227H503.98ZM506.23 211.789V225.16H508.598C510.332 225.16 511.68 224.621 512.641 223.543C513.609 222.465 514.094 220.93 514.094 218.938V217.941C514.094 216.004 513.637 214.5 512.723 213.43C511.816 212.352 510.527 211.805 508.855 211.789H506.23Z" fill="black"/>
<circle cx="206.5" cy="348.5" r="30.5" fill="#C4C4C4"/>
<circle cx="206.5" cy="348.5" r="30.5" fill="#C4C4C4"/>
<path d="M209.625 348.113H202.23V354.16H210.82V356H199.98V338.938H210.703V340.789H202.23V346.273H209.625V348.113Z" fill="black"/>
<circle cx="206.5" cy="219.5" r="30.5" fill="#C4C4C4"/>
<path d="M199.98 227V209.938H205.559C207.41 209.938 208.801 210.32 209.73 211.086C210.668 211.852 211.137 212.984 211.137 214.484C211.137 215.281 210.91 215.988 210.457 216.605C210.004 217.215 209.387 217.688 208.605 218.023C209.527 218.281 210.254 218.773 210.785 219.5C211.324 220.219 211.594 221.078 211.594 222.078C211.594 223.609 211.098 224.812 210.105 225.688C209.113 226.562 207.711 227 205.898 227H199.98ZM202.23 219.02V225.16H205.945C206.992 225.16 207.816 224.891 208.418 224.352C209.027 223.805 209.332 223.055 209.332 222.102C209.332 220.047 208.215 219.02 205.98 219.02H202.23ZM202.23 217.215H205.629C206.613 217.215 207.398 216.969 207.984 216.477C208.578 215.984 208.875 215.316 208.875 214.473C208.875 213.535 208.602 212.855 208.055 212.434C207.508 212.004 206.676 211.789 205.559 211.789H202.23V217.215Z" fill="black"/>
<circle cx="54.5" cy="215.5" r="30.5" fill="#C4C4C4"/>
<path d="M44.5723 215.197C43.6074 214.92 42.9043 214.58 42.4629 214.178C42.0254 213.771 41.8066 213.271 41.8066 212.678C41.8066 212.006 42.0742 211.451 42.6094 211.014C43.1484 210.572 43.8477 210.352 44.707 210.352C45.293 210.352 45.8145 210.465 46.2715 210.691C46.7324 210.918 47.0879 211.23 47.3379 211.629C47.5918 212.027 47.7188 212.463 47.7188 212.936H46.5879C46.5879 212.42 46.4238 212.016 46.0957 211.723C45.7676 211.426 45.3047 211.277 44.707 211.277C44.1523 211.277 43.7188 211.4 43.4062 211.646C43.0977 211.889 42.9434 212.227 42.9434 212.66C42.9434 213.008 43.0898 213.303 43.3828 213.545C43.6797 213.783 44.1816 214.002 44.8887 214.201C45.5996 214.4 46.1543 214.621 46.5527 214.863C46.9551 215.102 47.252 215.381 47.4434 215.701C47.6387 216.021 47.7363 216.398 47.7363 216.832C47.7363 217.523 47.4668 218.078 46.9277 218.496C46.3887 218.91 45.668 219.117 44.7656 219.117C44.1797 219.117 43.6328 219.006 43.125 218.783C42.6172 218.557 42.2246 218.248 41.9473 217.857C41.6738 217.467 41.5371 217.023 41.5371 216.527H42.668C42.668 217.043 42.8574 217.451 43.2363 217.752C43.6191 218.049 44.1289 218.197 44.7656 218.197C45.3594 218.197 45.8145 218.076 46.1309 217.834C46.4473 217.592 46.6055 217.262 46.6055 216.844C46.6055 216.426 46.459 216.104 46.166 215.877C45.873 215.646 45.3418 215.42 44.5723 215.197ZM50.4844 211.125V212.66H51.668V213.498H50.4844V217.43C50.4844 217.684 50.5371 217.875 50.6426 218.004C50.748 218.129 50.9277 218.191 51.1816 218.191C51.3066 218.191 51.4785 218.168 51.6973 218.121V219C51.4121 219.078 51.1348 219.117 50.8652 219.117C50.3809 219.117 50.0156 218.971 49.7695 218.678C49.5234 218.385 49.4004 217.969 49.4004 217.43V213.498H48.2461V212.66H49.4004V211.125H50.4844ZM56.8535 219C56.791 218.875 56.7402 218.652 56.7012 218.332C56.1973 218.855 55.5957 219.117 54.8965 219.117C54.2715 219.117 53.7578 218.941 53.3555 218.59C52.957 218.234 52.7578 217.785 52.7578 217.242C52.7578 216.582 53.0078 216.07 53.5078 215.707C54.0117 215.34 54.7188 215.156 55.6289 215.156H56.6836V214.658C56.6836 214.279 56.5703 213.979 56.3438 213.756C56.1172 213.529 55.7832 213.416 55.3418 213.416C54.9551 213.416 54.6309 213.514 54.3691 213.709C54.1074 213.904 53.9766 214.141 53.9766 214.418H52.8867C52.8867 214.102 52.998 213.797 53.2207 213.504C53.4473 213.207 53.752 212.973 54.1348 212.801C54.5215 212.629 54.9453 212.543 55.4062 212.543C56.1367 212.543 56.709 212.727 57.123 213.094C57.5371 213.457 57.752 213.959 57.7676 214.6V217.518C57.7676 218.1 57.8418 218.562 57.9902 218.906V219H56.8535ZM55.0547 218.174C55.3945 218.174 55.7168 218.086 56.0215 217.91C56.3262 217.734 56.5469 217.506 56.6836 217.225V215.924H55.834C54.5059 215.924 53.8418 216.312 53.8418 217.09C53.8418 217.43 53.9551 217.695 54.1816 217.887C54.4082 218.078 54.6992 218.174 55.0547 218.174ZM62.5312 213.633C62.3672 213.605 62.1895 213.592 61.998 213.592C61.2871 213.592 60.8047 213.895 60.5508 214.5V219H59.4668V212.66H60.5215L60.5391 213.393C60.8945 212.826 61.3984 212.543 62.0508 212.543C62.2617 212.543 62.4219 212.57 62.5312 212.625V213.633ZM65.2969 211.125V212.66H66.4805V213.498H65.2969V217.43C65.2969 217.684 65.3496 217.875 65.4551 218.004C65.5605 218.129 65.7402 218.191 65.9941 218.191C66.1191 218.191 66.291 218.168 66.5098 218.121V219C66.2246 219.078 65.9473 219.117 65.6777 219.117C65.1934 219.117 64.8281 218.971 64.582 218.678C64.3359 218.385 64.2129 217.969 64.2129 217.43V213.498H63.0586V212.66H64.2129V211.125H65.2969Z" fill="black"/>
<circle cx="662.5" cy="219.5" r="30.5" fill="#C4C4C4"/>
<path d="M657.705 219.057H654.008V222.08H658.303V223H652.883V214.469H658.244V215.395H654.008V218.137H657.705V219.057ZM660.559 216.66L660.594 217.457C661.078 216.848 661.711 216.543 662.492 216.543C663.832 216.543 664.508 217.299 664.52 218.811V223H663.436V218.805C663.432 218.348 663.326 218.01 663.119 217.791C662.916 217.572 662.598 217.463 662.164 217.463C661.812 217.463 661.504 217.557 661.238 217.744C660.973 217.932 660.766 218.178 660.617 218.482V223H659.533V216.66H660.559ZM665.891 219.777C665.891 218.805 666.121 218.023 666.582 217.434C667.043 216.84 667.646 216.543 668.393 216.543C669.135 216.543 669.723 216.797 670.156 217.305V214H671.24V223H670.244L670.191 222.32C669.758 222.852 669.154 223.117 668.381 223.117C667.646 223.117 667.047 222.816 666.582 222.215C666.121 221.613 665.891 220.828 665.891 219.859V219.777ZM666.975 219.9C666.975 220.619 667.123 221.182 667.42 221.588C667.717 221.994 668.127 222.197 668.65 222.197C669.338 222.197 669.84 221.889 670.156 221.271V218.359C669.832 217.762 669.334 217.463 668.662 217.463C668.131 217.463 667.717 217.668 667.42 218.078C667.123 218.488 666.975 219.096 666.975 219.9Z" fill="black"/>
<path d="M171.495 110.128C171.565 109.302 170.953 108.576 170.128 108.505L156.677 107.357C155.851 107.287 155.125 107.899 155.054 108.724C154.984 109.55 155.596 110.276 156.421 110.346L168.378 111.367L167.357 123.323C167.287 124.149 167.899 124.875 168.724 124.946C169.55 125.016 170.276 124.404 170.346 123.579L171.495 110.128ZM81.9666 186.147L170.967 111.147L169.033 108.853L80.0334 183.853L81.9666 186.147Z" fill="white"/>
<path d="M171.033 220.088C171.634 219.517 171.658 218.568 171.088 217.967L161.793 208.177C161.223 207.576 160.273 207.551 159.672 208.122C159.072 208.692 159.047 209.641 159.617 210.242L167.879 218.945L159.177 227.207C158.576 227.777 158.551 228.727 159.122 229.328C159.692 229.928 160.641 229.953 161.242 229.383L171.033 220.088ZM92.9611 218.499L169.961 220.499L170.039 217.501L93.0389 215.501L92.9611 218.499Z" fill="white"/>
<path d="M174.118 327.495C174.943 327.43 175.56 326.708 175.495 325.882L174.436 312.424C174.371 311.598 173.649 310.981 172.823 311.046C171.997 311.111 171.38 311.833 171.445 312.659L172.387 324.622L160.424 325.564C159.598 325.629 158.981 326.351 159.046 327.177C159.111 328.003 159.833 328.62 160.659 328.555L174.118 327.495ZM80.5258 248.141L173.026 327.141L174.974 324.859L82.4742 245.859L80.5258 248.141Z" fill="white"/>
<path d="M328.017 195.5C328.846 195.49 329.51 194.811 329.5 193.983L329.343 180.483C329.333 179.655 328.654 178.991 327.826 179.001C326.997 179.011 326.333 179.69 326.343 180.518L326.483 192.518L314.483 192.657C313.655 192.667 312.991 193.346 313.001 194.174C313.011 195.003 313.69 195.666 314.518 195.657L328.017 195.5ZM239.952 110.073L326.952 195.073L329.048 192.927L242.048 107.927L239.952 110.073Z" fill="white"/>
<path d="M321.047 224.075C321.64 223.496 321.653 222.547 321.075 221.953L311.655 212.283C311.077 211.689 310.127 211.677 309.534 212.255C308.94 212.833 308.928 213.782 309.506 214.376L317.879 222.972L309.283 231.345C308.689 231.923 308.677 232.873 309.255 233.466C309.833 234.06 310.782 234.072 311.376 233.494L321.047 224.075ZM243.98 223.5L319.98 224.5L320.02 221.5L244.02 220.5L243.98 223.5Z" fill="white"/>
<path d="M474.047 224.074C474.64 223.496 474.652 222.547 474.074 221.953L464.653 212.284C464.075 211.691 463.125 211.678 462.532 212.257C461.939 212.835 461.926 213.784 462.504 214.378L470.879 222.972L462.284 231.347C461.691 231.925 461.678 232.875 462.257 233.468C462.835 234.061 463.784 234.074 464.378 233.496L474.047 224.074ZM395.981 223.5L472.981 224.5L473.019 221.5L396.019 220.5L395.981 223.5Z" fill="white"/>
<path d="M481.362 246.629C481.709 245.877 481.381 244.985 480.629 244.638L468.372 238.979C467.62 238.631 466.729 238.959 466.382 239.711C466.035 240.464 466.363 241.355 467.115 241.702L478.009 246.733L472.979 257.628C472.631 258.38 472.959 259.271 473.711 259.618C474.464 259.965 475.355 259.637 475.702 258.885L481.362 246.629ZM241.518 335.408L480.518 247.408L479.482 244.592L240.482 332.592L241.518 335.408Z" fill="white"/>
<path d="M626.031 224.116C626.632 223.546 626.658 222.597 626.088 221.995L616.804 212.195C616.234 211.594 615.285 211.568 614.683 212.138C614.082 212.707 614.056 213.657 614.626 214.258L622.879 222.97L614.167 231.223C613.566 231.792 613.54 232.742 614.11 233.343C614.68 233.945 615.629 233.97 616.231 233.4L626.031 224.116ZM549.959 222.499L624.959 224.526L625.04 221.528L550.041 219.501L549.959 222.499Z" fill="white"/>
</svg>
