<?xml version="1.0" standalone="no"?>
<!DOCTYPE svg PUBLIC "-//W3C//DTD SVG 20010904//EN"
 "http://www.w3.org/TR/2001/REC-SVG-20010904/DTD/svg10.dtd">
<svg version="1.0" xmlns="http://www.w3.org/2000/svg"
 width="768.000000pt" height="768.000000pt" viewBox="0 0 768.000000 768.000000"
 preserveAspectRatio="xMidYMid meet">
<metadata>
Created by potrace 1.14, written by Peter Selinger 2001-2017
</metadata>
<g transform="translate(0.000000,768.000000) scale(0.100000,-0.100000)"
fill="#000000" stroke="none">
<path d="M3645 7193 c-33 -2 -67 -10 -75 -17 -8 -8 -32 -17 -54 -20 -21 -4
-69 -22 -105 -41 -82 -41 -119 -51 -245 -66 -112 -12 -188 -41 -226 -85 -16
-19 -18 -23 -5 -13 52 42 57 33 9 -16 -29 -30 -58 -55 -63 -55 -6 0 -13 -11
-17 -24 -5 -22 -74 -66 -105 -66 -20 -1 -97 -50 -79 -50 9 -1 5 -6 -9 -14 -23
-13 -23 -14 -5 -19 16 -4 16 -5 2 -6 -10 0 -18 -5 -18 -9 0 -5 -19 -23 -42
-39 -57 -41 -206 -183 -192 -183 5 0 15 5 22 12 6 6 14 9 17 6 3 -3 -11 -21
-32 -39 -71 -65 -218 -222 -196 -210 32 17 36 14 13 -11 -11 -12 -20 -29 -20
-38 0 -22 -39 -57 -70 -63 -23 -4 -23 -4 -2 -6 19 -1 34 -31 14 -31 -4 0 -13
-13 -20 -28 -7 -16 -28 -46 -47 -68 -38 -42 -41 -50 -23 -56 9 -3 8 -16 -4
-49 -65 -175 -118 -857 -78 -1006 12 -45 12 -73 0 -190 -7 -76 -14 -151 -16
-168 -2 -16 -7 -52 -12 -80 -14 -73 -5 -113 29 -130 15 -8 34 -15 42 -15 8 0
21 -8 30 -18 14 -16 14 -19 -2 -41 -16 -21 -24 -23 -65 -18 -41 6 -48 4 -61
-17 -12 -18 -13 -33 -5 -77 12 -62 35 -139 56 -187 8 -18 12 -37 9 -42 -6 -10
33 -155 40 -148 2 2 11 62 20 133 8 72 18 143 21 159 l6 30 25 -42 c14 -23 30
-42 37 -42 6 0 19 -12 29 -25 17 -24 17 -26 -13 -82 -17 -31 -31 -68 -32 -82
-1 -14 -5 -30 -9 -36 -3 -5 -10 -41 -14 -78 -8 -80 12 -151 52 -181 24 -18 26
-18 59 0 37 20 38 28 3 97 -32 64 -39 116 -25 184 12 61 38 113 56 113 14 0
32 -39 37 -79 3 -20 11 -41 19 -47 8 -7 17 -29 20 -50 2 -21 9 -43 15 -49 13
-12 2 226 -12 263 -20 52 -49 221 -48 272 1 30 8 91 16 135 7 44 15 90 17 102
1 11 12 33 24 47 18 24 21 25 26 9 67 -232 93 -288 171 -362 29 -28 58 -51 64
-51 6 0 11 -4 11 -9 0 -8 14 -12 105 -27 22 -4 42 -9 45 -13 10 -12 463 7 520
22 30 9 57 13 60 11 2 -3 -6 -7 -18 -11 -19 -5 -20 -8 -10 -21 12 -14 8 -15
-34 -9 -26 4 -55 4 -63 1 -14 -6 -13 -8 2 -19 12 -9 25 -10 41 -4 30 12 52 11
52 0 0 -5 -10 -7 -22 -3 -20 5 -21 4 -9 -11 9 -11 21 -15 37 -11 44 11 20 -44
-44 -102 -23 -20 -42 -46 -42 -57 0 -24 -51 -107 -65 -107 -16 0 -57 -49 -50
-60 3 -5 2 -10 -3 -10 -6 0 -15 -12 -21 -28 -29 -68 -62 -122 -76 -122 -8 0
-15 -9 -15 -20 0 -11 -5 -20 -11 -20 -7 0 -10 -12 -7 -30 5 -30 -5 -41 -16
-17 -4 6 -4 1 -2 -12 3 -13 -1 -32 -7 -42 -9 -14 -9 -26 0 -49 6 -16 8 -30 4
-30 -3 0 -5 -21 -4 -47 3 -60 6 -78 19 -94 5 -8 18 -31 28 -51 11 -21 23 -38
28 -38 5 0 7 -4 4 -9 -3 -5 1 -14 9 -21 11 -9 15 -9 15 -1 0 9 6 8 23 -1 12
-7 27 -11 34 -10 6 1 14 -2 18 -7 3 -6 18 -3 38 8 37 20 107 17 107 -5 0 -10
9 -12 33 -7 47 9 69 23 63 39 -7 17 -2 18 37 0 18 -8 57 -22 87 -31 30 -10 63
-21 72 -26 10 -5 36 -9 58 -9 22 0 40 -3 40 -8 0 -13 59 -34 80 -27 36 11 26
34 -33 78 -71 54 -12 83 183 90 73 3 129 10 152 20 25 10 40 12 44 5 4 -6 31
-8 73 -4 36 3 120 7 186 8 96 1 128 6 160 21 22 11 57 19 78 19 44 -2 77 12
77 33 0 8 12 22 26 32 25 16 25 17 8 30 -25 19 -38 16 -49 -9 -15 -34 -87 -58
-170 -57 -95 1 -95 2 -95 -21 0 -23 -20 -24 -290 -11 -133 6 -158 5 -173 -8
-17 -14 -20 -14 -30 0 -7 8 -21 19 -32 23 -18 7 -19 8 -3 20 15 11 15 13 -2
23 -9 7 -35 15 -56 19 -22 3 -45 11 -53 17 -17 14 -30 16 -126 21 -44 2 -82 5
-85 6 -3 1 -15 1 -27 0 -29 -2 -29 3 2 34 14 14 25 22 25 19 0 -4 5 -2 11 4 6
6 18 9 26 6 13 -5 13 -3 2 15 -15 24 -3 45 12 22 8 -12 9 -11 7 5 -2 12 4 21
15 23 10 2 29 14 43 27 l25 24 -22 11 -22 12 31 29 c20 19 37 27 48 22 13 -5
15 -2 10 14 -6 20 22 54 56 66 11 4 15 12 12 22 -4 9 0 15 10 16 27 2 29 3 82
34 49 27 52 31 58 79 6 55 -1 66 -45 66 -15 0 -32 7 -39 15 -7 8 -19 15 -26
15 -8 0 -14 5 -14 10 0 6 -6 10 -12 10 -17 0 -66 62 -74 94 -5 22 -10 25 -33
19 -14 -3 -40 -17 -57 -30 -17 -12 -35 -23 -40 -23 -5 0 -21 -11 -36 -25 -15
-14 -31 -25 -37 -25 -5 0 -11 -4 -13 -8 -1 -5 -18 -12 -35 -15 -29 -6 -33 -4
-33 15 0 53 71 151 116 160 10 1 16 7 15 11 -1 5 7 17 19 27 17 15 27 17 46
10 20 -8 26 -6 30 8 3 9 9 24 14 33 5 9 7 25 4 36 -4 15 -12 18 -45 15 -23 -3
-45 0 -50 5 -10 10 10 73 24 73 15 0 49 39 42 49 -3 6 -2 11 3 11 5 0 8 14 6
30 -3 24 0 30 16 30 23 0 22 -3 26 70 4 59 8 86 17 110 3 8 8 37 11 63 10 84
55 127 133 127 68 0 94 -32 158 -196 60 -150 116 -253 197 -359 55 -72 75 -90
108 -99 18 -6 21 -5 10 3 -29 20 0 24 57 8 198 -56 568 -38 722 34 36 16 82
47 102 69 79 83 129 243 151 476 11 121 23 164 49 164 14 0 31 -81 24 -120 -4
-23 2 -80 15 -146 23 -118 39 -358 28 -420 -9 -51 2 -168 14 -156 12 12 34
139 43 247 3 44 12 98 20 120 7 22 16 52 19 68 4 15 11 27 17 27 5 0 24 14 42
30 18 17 47 34 66 40 18 5 41 16 51 25 17 15 17 18 -1 68 -12 32 -15 53 -9 57
7 4 0 43 -16 106 -23 85 -26 117 -25 226 1 70 -6 181 -14 245 -9 65 -20 152
-25 193 -5 41 -13 95 -19 120 -5 25 -12 70 -16 100 -3 30 -10 69 -15 85 -5 17
-16 64 -25 105 -35 160 -80 301 -121 377 -18 35 -41 91 -50 125 -15 54 -27 71
-78 120 -34 32 -89 86 -122 119 -48 48 -66 61 -83 56 -26 -6 -91 10 -91 23 0
6 -8 10 -17 10 -10 0 -29 9 -43 20 -30 24 -14 27 19 3 18 -12 23 -13 19 -2 -2
7 -28 23 -56 34 -28 11 -62 31 -75 43 -13 12 -29 22 -35 22 -7 0 -12 4 -12 8
0 4 -39 31 -87 59 -55 32 -112 76 -151 118 -51 52 -83 75 -155 109 -148 71
-285 91 -433 62 -60 -11 -83 -11 -140 0 -67 13 -123 14 -249 7z m545 -22 c-27
-16 -97 -23 -147 -15 l-48 8 35 7 c53 10 178 10 160 0z m-534 -27 c18 -15 18
-15 -6 -10 -14 3 -36 6 -50 7 -23 0 -23 1 -5 9 29 13 39 12 61 -6z m114 6 c0
-5 -8 -10 -17 -10 -15 0 -16 2 -3 10 19 12 20 12 20 0z m608 -15 c57 -20 131
-59 162 -85 l25 -22 -25 5 c-14 3 -59 15 -100 26 -41 11 -91 21 -111 21 -33 0
-194 42 -205 53 -3 3 18 10 48 16 64 12 148 6 206 -14z m-848 -5 c-8 -5 -26
-9 -40 -9 l-25 1 25 8 c14 4 32 8 40 9 13 1 13 0 0 -9z m980 -689 c0 -17 6
-19 50 -16 28 2 61 7 73 10 16 5 18 4 8 -3 -24 -17 -5 -44 26 -39 16 2 22 2
16 0 -7 -3 -13 -10 -13 -18 0 -8 29 -19 75 -30 41 -10 75 -21 75 -24 0 -3 25
-19 55 -36 30 -16 55 -32 55 -36 0 -4 20 -19 45 -33 25 -15 45 -33 45 -41 0
-8 5 -15 10 -15 6 0 9 -6 8 -12 -2 -7 7 -14 20 -16 12 -2 22 -7 22 -11 0 -4 8
-16 18 -27 18 -19 80 -134 100 -184 45 -114 56 -150 59 -203 5 -70 10 -133 16
-192 2 -22 0 -46 -6 -53 -8 -10 -7 -20 2 -34 10 -17 10 -22 0 -28 -10 -7 -10
-14 0 -38 7 -17 10 -39 7 -50 -9 -26 37 -163 74 -223 17 -28 29 -53 26 -56 -2
-3 -51 3 -108 12 -162 27 -290 45 -323 45 -29 0 -29 1 -11 15 11 8 28 13 38 9
10 -3 25 -1 35 4 14 8 12 12 -15 26 -17 9 -41 15 -54 13 -16 -1 -23 3 -22 14
1 9 -4 16 -10 17 -6 1 -31 4 -56 6 -25 2 -65 12 -89 21 -50 18 -235 27 -251
11 -6 -6 -10 -6 -10 -2 0 5 8 15 18 22 15 12 15 12 -5 7 -14 -3 -23 -1 -23 6
0 8 -7 7 -22 -3 -13 -8 -39 -17 -58 -21 -33 -7 -34 -7 -20 11 14 16 13 17 -5
9 -11 -4 -28 -8 -37 -9 -12 0 -16 -6 -13 -18 4 -11 -1 -21 -15 -28 -15 -8 -20
-8 -20 1 0 8 -6 7 -17 -3 -10 -8 -26 -18 -37 -22 -16 -5 -17 -2 -12 21 6 25 5
26 -5 8 -7 -11 -20 -29 -29 -40 -18 -21 -60 -130 -60 -157 0 -42 -63 -61 -241
-74 -89 -7 -183 1 -175 15 3 4 -1 17 -10 29 -12 17 -22 20 -63 16 -49 -4 -50
-4 -84 41 -19 24 -37 42 -40 39 -3 -3 -17 20 -32 51 -17 34 -31 52 -35 45 -5
-8 -14 -3 -27 14 -11 14 -23 23 -27 19 -3 -3 -1 -12 5 -20 15 -17 10 -16 -37
3 -22 9 -51 16 -67 16 -17 0 -25 3 -21 10 4 6 2 8 -4 4 -6 -3 -38 1 -72 11
-49 13 -66 14 -81 5 -10 -7 -34 -12 -53 -12 -18 0 -39 -6 -45 -14 -7 -8 -21
-12 -32 -9 -15 4 -18 2 -13 -12 6 -15 3 -17 -21 -13 -16 3 -54 -1 -84 -9 -31
-9 -66 -15 -79 -14 -43 2 -155 -57 -197 -104 -34 -38 -49 -46 -93 -55 -44 -8
-56 -7 -69 5 -11 12 -12 15 -1 15 7 0 21 17 30 38 9 20 17 29 17 20 1 -9 5
-20 11 -23 5 -3 7 0 4 8 -3 9 4 21 15 29 21 15 21 15 -4 28 -31 17 -40 40 -16
40 17 0 31 18 31 41 0 5 -7 9 -15 9 -8 0 -15 7 -15 15 0 8 5 15 10 15 14 0 12
47 -2 54 -7 4 -2 4 12 1 14 -3 35 -8 48 -11 12 -2 22 0 22 7 0 6 -9 9 -19 6
-14 -3 -18 -1 -14 9 4 10 -3 14 -21 14 -14 0 -26 5 -26 10 0 6 11 10 25 10 14
0 25 5 25 10 0 6 -11 10 -25 10 -26 0 -33 14 -15 25 8 5 8 11 1 19 -6 7 -7 24
-3 41 9 32 -9 79 -33 89 -10 3 -12 15 -8 43 3 21 9 40 13 43 9 8 35 74 32 84
-1 4 9 28 23 51 14 24 23 50 20 57 -5 12 18 49 57 90 10 9 16 23 14 30 -1 7
-1 10 1 6 3 -5 14 -8 24 -8 11 0 18 4 14 9 -8 14 65 117 97 136 16 9 26 21 22
26 -3 6 3 13 14 16 11 2 25 15 32 28 7 13 29 31 49 40 20 8 43 19 51 24 50 28
92 43 135 47 29 3 58 12 70 24 14 13 36 19 70 20 118 3 150 5 156 13 7 10 104
12 119 2 6 -4 16 -2 23 3 7 6 31 9 55 9 23 -1 42 2 42 6 0 5 5 5 11 2 15 -10
51 26 44 43 -3 9 0 12 9 9 8 -3 26 3 39 14 31 24 36 24 30 0 -6 -25 11 -35 27
-16 7 8 18 15 25 15 8 0 15 6 18 13 2 6 7 9 11 5 4 -3 2 -16 -4 -28 -6 -12 -9
-24 -6 -27 7 -7 46 35 46 49 0 4 6 8 14 8 9 0 12 -7 9 -22 -3 -17 -2 -19 5 -9
8 10 11 11 17 1 5 -8 2 -18 -7 -24 -8 -6 -13 -16 -11 -23 3 -8 11 -5 24 8 10
10 27 19 37 19 14 0 12 -4 -8 -20 -18 -13 -22 -22 -14 -30 7 -7 16 -5 30 9 16
14 25 16 38 9 16 -9 17 -7 12 13 -3 13 -3 18 0 12 3 -7 12 -13 20 -13 11 0 12
-4 4 -19 -17 -32 -12 -35 23 -9 17 13 43 28 57 34 121 53 167 60 93 15 -37
-22 -37 -22 -8 -16 26 5 77 26 162 67 11 6 26 7 33 3 6 -4 21 2 33 13 20 18
43 28 75 31 6 0 12 -8 12 -18z m-595 -21 c3 -5 1 -10 -4 -10 -6 0 -11 5 -11
10 0 6 2 10 4 10 3 0 8 -4 11 -10z m978 -1307 c-7 -2 -19 -2 -25 0 -7 3 -2 5
12 5 14 0 19 -2 13 -5z m-710 -58 c-3 -9 -8 -14 -10 -11 -3 3 -2 9 2 15 9 16
15 13 8 -4z m854 -1 c-3 -3 -12 -4 -19 -1 -8 3 -5 6 6 6 11 1 17 -2 13 -5z
m185 -28 c4 -6 6 -11 5 -13 -2 -1 -36 7 -77 17 l-75 19 70 -6 c39 -3 73 -11
77 -17z m-292 -11 l-25 -14 33 -1 c18 0 40 5 51 11 11 8 32 9 57 4 l39 -8 -35
-10 c-19 -6 -37 -12 -40 -14 -10 -9 26 -22 46 -17 12 3 25 1 28 -5 9 -13 56
-15 56 -2 0 5 -7 17 -16 25 -11 12 -12 16 -2 16 14 0 48 -20 35 -20 -4 0 2
-18 13 -40 32 -64 70 -216 61 -248 -5 -17 -1 -54 10 -102 10 -41 19 -102 20
-135 1 -53 2 -56 9 -26 5 19 6 48 4 65 -3 18 4 52 16 81 l21 50 -6 -60 c-25
-247 -105 -367 -272 -409 -97 -25 -292 -37 -433 -27 -244 19 -334 77 -430 276
-76 159 -104 338 -65 415 21 41 52 78 80 92 18 10 18 8 -2 -14 -24 -25 -30
-48 -14 -48 13 0 36 -73 24 -77 -16 -6 -1 -67 22 -89 13 -11 26 -32 30 -45 8
-28 74 -99 91 -99 6 0 17 -7 24 -15 7 -8 21 -15 32 -15 10 0 21 -7 25 -16 4
-12 14 -14 34 -10 16 3 29 2 29 -2 0 -14 303 -17 327 -3 14 7 9 11 -23 20 -21
6 -44 11 -50 11 -6 0 -33 10 -60 22 -27 13 -53 23 -59 24 -5 0 -18 4 -27 8
-14 6 -15 11 -5 27 6 10 22 19 34 19 16 0 25 8 29 25 7 27 32 38 74 33 16 -2
24 2 22 10 -4 23 17 49 43 54 30 6 42 -7 25 -27 -14 -17 -13 -17 80 -20 30 0
72 -5 92 -9 51 -11 63 -1 38 34 -11 15 -20 35 -20 44 0 9 -9 21 -20 28 -11 7
-20 18 -20 24 0 34 -228 97 -371 103 -15 0 -29 8 -33 16 -7 19 39 62 82 76 17
6 30 15 27 20 -4 5 54 9 142 9 133 -1 146 -2 123 -15z m464 -43 c2 -4 -11 -6
-30 -4 -34 4 -45 16 -21 25 13 5 42 -8 51 -21z m106 12 c0 -14 -3 -15 -17 -3
-10 7 -20 15 -22 16 -2 2 5 3 17 3 14 0 22 -6 22 -16z m6 -24 c8 0 14 -9 14
-20 0 -11 -5 -20 -11 -20 -5 0 -7 -5 -3 -11 4 -7 1 -10 -7 -7 -8 3 -13 10 -12
15 1 5 -14 7 -33 5 -25 -3 -35 0 -40 13 -9 23 14 37 50 30 16 -3 35 -5 42 -5z
m72 -42 c15 -15 16 -41 0 -36 -13 5 -31 48 -20 48 5 0 13 -5 20 -12z m-2465
-38 c21 -10 34 -21 28 -24 -5 -4 -49 -12 -98 -18 -66 -8 -88 -8 -91 0 -2 7
-10 12 -17 12 -7 0 -15 8 -17 18 -9 42 111 50 195 12z m2500 -5 c4 -8 3 -16
-1 -19 -4 -3 -9 4 -9 15 -2 23 3 25 10 4z m-3413 -19 c0 -8 -9 -21 -20 -29
-11 -8 -18 -16 -15 -19 3 -3 -4 -13 -15 -23 -33 -30 -33 -11 0 30 16 21 30 42
30 46 0 5 5 9 10 9 6 0 10 -6 10 -14z m2585 -8 c58 -15 115 -46 115 -63 0 -21
-5 -20 -99 20 -45 19 -93 35 -106 35 -13 0 -32 3 -42 7 -16 6 -15 8 7 14 27 7
60 3 125 -13z m518 -83 l5 -60 -13 50 c-15 59 -19 108 -6 85 5 -8 11 -42 14
-75z m-2845 -65 c1 -83 -1 -120 -9 -120 -17 0 -2 -107 23 -158 11 -23 22 -60
25 -82 14 -104 31 -7 39 220 4 133 12 200 23 200 18 0 35 -33 38 -73 2 -23 5
-78 6 -122 1 -44 6 -86 11 -93 5 -8 4 -18 -3 -25 -16 -16 -14 -25 9 -32 12 -4
20 -15 20 -30 0 -23 35 -42 46 -24 3 5 14 5 25 -2 16 -8 26 -7 44 5 48 31 39
-13 -11 -59 -16 -15 -25 -45 -13 -45 10 0 17 5 63 45 37 32 40 32 32 -7 -4
-23 -3 -28 4 -18 8 13 11 12 25 -5 12 -14 18 -16 21 -7 3 6 14 12 23 12 10 0
26 9 36 20 17 19 41 29 32 13 -3 -5 9 -9 26 -9 26 -1 28 0 14 11 -19 14 -12
25 15 25 10 0 18 3 18 8 0 4 21 7 48 6 26 0 52 2 57 5 26 15 101 29 110 20 14
-14 45 -11 45 4 0 7 17 19 38 26 20 8 43 16 51 19 10 4 13 1 8 -11 -4 -12 -1
-17 10 -17 12 0 14 -7 10 -30 -5 -25 -2 -32 26 -52 18 -12 35 -27 39 -33 5 -7
8 -7 8 1 0 5 -5 15 -11 21 -7 7 -9 22 -4 40 5 15 7 33 6 39 -7 47 65 97 76 53
5 -19 6 -19 19 -2 13 16 13 15 5 -7 -37 -99 -66 -148 -133 -218 -86 -90 -207
-122 -464 -122 -247 0 -388 36 -451 117 -63 79 -102 208 -110 365 -6 108 11
248 30 248 1 0 3 -54 5 -120z m3193 79 c34 -43 54 -38 25 6 -9 13 -12 26 -7
29 19 12 39 -99 32 -179 -2 -17 -21 19 -21 38 0 29 -32 90 -57 110 -13 10 -23
23 -23 28 0 20 20 7 51 -32z m-3541 -28 c0 -5 -6 -16 -13 -23 -7 -7 -18 -24
-24 -38 -6 -14 -12 -18 -12 -10 -1 8 8 30 19 48 20 32 30 40 30 23z m234 -82
c4 -34 5 -64 2 -67 -3 -3 -6 3 -6 14 0 10 -7 32 -15 48 -8 15 -15 45 -15 65 1
32 2 34 14 18 7 -9 17 -45 20 -78z m826 41 c0 -5 -2 -10 -4 -10 -3 0 -8 5 -11
10 -3 6 -1 10 4 10 6 0 11 -4 11 -10z m90 -30 c0 -5 -7 -10 -16 -10 -8 0 -12
5 -9 10 3 6 10 10 16 10 5 0 9 -4 9 -10z m1020 -5 c-14 -17 -30 -20 -30 -6 0
5 8 12 18 14 9 3 19 5 21 6 2 0 -2 -6 -9 -14z m360 -22 c0 -12 -8 -18 -25 -19
-31 -2 -33 14 -2 26 12 5 23 9 25 9 1 1 2 -7 2 -16z m-1447 -46 c4 -10 -2 -13
-20 -9 -18 3 -21 7 -11 13 18 12 25 11 31 -4z m-43 -72 c-7 -8 -17 -15 -22
-15 -6 0 -5 7 2 15 7 8 17 15 22 15 6 0 5 -7 -2 -15z m556 -112 c-10 -10 -19
5 -10 18 6 11 8 11 12 0 2 -7 1 -15 -2 -18z m-428 -38 c-3 -3 -9 2 -12 12 -6
14 -5 15 5 6 7 -7 10 -15 7 -18z m-318 -35 c0 -6 -7 -13 -15 -16 -21 -8 -67 4
-60 16 8 13 75 13 75 0z m-806 -275 c-4 -16 -9 -34 -12 -39 -10 -17 -31 39
-32 84 l0 45 25 -30 c19 -23 23 -37 19 -60z m1246 -614 c0 -6 -4 -13 -10 -16
-5 -3 -10 1 -10 9 0 9 5 16 10 16 6 0 10 -4 10 -9z"/>
<path d="M2551 5434 c0 -11 3 -14 6 -6 3 7 2 16 -1 19 -3 4 -6 -2 -5 -13z"/>
<path d="M2550 5184 c0 -8 5 -12 10 -9 6 3 10 10 10 16 0 5 -4 9 -10 9 -5 0
-10 -7 -10 -16z"/>
<path d="M2531 5134 c0 -11 3 -14 6 -6 3 7 2 16 -1 19 -3 4 -6 -2 -5 -13z"/>
<path d="M2476 5024 c-6 -15 20 -32 31 -20 4 3 -2 6 -13 7 -19 0 -19 1 0 8 17
6 17 8 4 14 -10 3 -19 0 -22 -9z"/>
<path d="M3541 4403 c-1 -6 -4 -20 -7 -30 -5 -17 -5 -17 6 0 6 10 9 23 6 30
-3 9 -5 9 -5 0z"/>
<path d="M3390 4281 c0 -12 5 -21 10 -21 6 0 10 6 10 14 0 8 -4 18 -10 21 -5
3 -10 -3 -10 -14z"/>
<path d="M2830 4250 c0 -5 5 -10 11 -10 5 0 7 5 4 10 -3 6 -8 10 -11 10 -2 0
-4 -4 -4 -10z"/>
<path d="M2751 4124 c0 -11 3 -14 6 -6 3 7 2 16 -1 19 -3 4 -6 -2 -5 -13z"/>
<path d="M5790 4435 c-10 -12 -10 -21 0 -44 17 -41 40 -48 40 -13 0 15 3 37 6
50 5 17 2 22 -14 22 -11 0 -25 -7 -32 -15z"/>
<path d="M2668 4043 c7 -3 16 -2 19 1 4 3 -2 6 -13 5 -11 0 -14 -3 -6 -6z"/>
<path d="M2627 4012 c-21 -23 -22 -36 -2 -28 10 3 18 -1 22 -12 3 -9 13 -26
22 -36 15 -18 15 -19 -6 -14 -26 7 -63 -24 -63 -52 0 -21 -15 -27 -25 -10 -11
18 -23 10 -30 -20 -4 -16 -20 -44 -38 -62 -21 -23 -31 -44 -33 -71 -1 -20 2
-34 7 -31 10 6 12 -1 13 -66 1 -25 9 -56 19 -70 l17 -24 0 24 c0 25 0 25 15
-4 8 -15 15 -41 15 -57 0 -15 5 -31 11 -34 6 -4 9 0 7 11 -2 13 4 20 19 22 18
3 21 -1 19 -20 -1 -13 -6 -29 -10 -36 -8 -13 0 -32 15 -32 5 0 9 8 10 18 1 11
4 9 9 -8 7 -23 8 -23 9 -4 1 13 9 24 22 27 13 4 18 10 14 17 -5 9 -1 10 16 5
13 -4 25 -8 26 -9 5 -4 -25 -145 -35 -163 -17 -31 -15 -43 8 -43 18 0 19 -5
15 -59 -3 -53 -2 -59 13 -54 15 5 14 3 -2 -16 -17 -18 -17 -21 -3 -15 11 4 17
1 17 -7 0 -18 -20 -49 -20 -31 0 6 -7 12 -15 12 -8 0 -15 -4 -15 -10 0 -5 -4
-10 -10 -10 -5 0 -10 9 -10 20 0 13 -10 24 -25 30 -14 5 -25 14 -25 20 0 5 -1
12 -1 15 -1 2 -5 25 -10 49 -11 58 -79 138 -79 93 0 -7 -8 -22 -18 -33 -21
-22 -24 -35 -12 -49 4 -5 6 -21 5 -35 -1 -18 -7 -24 -20 -22 -11 2 -14 -1 -10
-8 4 -7 18 -10 31 -7 13 2 24 0 24 -4 0 -9 -15 -13 -38 -10 -7 1 -15 -5 -18
-14 -3 -8 -13 -15 -21 -15 -13 0 -13 3 -3 15 16 20 0 19 -28 -1 -20 -14 -22
-14 -22 4 0 22 -23 46 -33 35 -4 -3 -7 -17 -7 -29 0 -13 -5 -26 -10 -29 -13
-8 4 -40 26 -49 16 -6 51 8 47 18 -8 17 -1 28 8 14 5 -10 16 -18 24 -18 9 0
12 -6 8 -17 -4 -11 -3 -14 5 -9 7 4 12 2 12 -3 0 -6 -4 -11 -10 -11 -5 0 -10
-9 -10 -20 0 -11 5 -20 10 -20 6 0 10 -8 10 -17 0 -15 -1 -15 -13 2 -10 12
-16 15 -21 6 -14 -22 78 -251 134 -336 44 -66 84 -188 81 -247 -1 -15 3 -29 9
-33 5 -3 10 -22 10 -41 0 -19 4 -42 9 -52 8 -15 22 -53 22 -59 0 -2 4 -16 9
-33 5 -19 5 -28 -1 -25 -15 10 -23 -26 -10 -46 9 -16 8 -19 -4 -19 -9 0 -18 7
-21 15 -4 8 -10 15 -15 15 -16 0 -10 -28 9 -42 25 -19 54 -81 46 -101 -3 -10
-1 -17 5 -17 6 0 8 -7 5 -15 -4 -8 -10 -12 -15 -9 -5 3 -6 -10 -2 -28 3 -18
10 -34 15 -36 11 -5 10 -32 -1 -32 -5 0 -12 6 -14 13 -10 24 -7 -11 3 -38 6
-16 14 -23 22 -19 8 5 9 -2 5 -23 -3 -17 -1 -35 6 -42 8 -8 8 -11 -1 -11 -17
0 -15 -25 3 -40 11 -9 12 -17 4 -33 -10 -17 -9 -19 6 -13 13 5 16 2 11 -10 -5
-12 -2 -15 10 -10 22 8 40 -4 23 -16 -10 -6 -6 -7 10 -3 19 6 23 4 18 -8 -3
-9 -1 -18 6 -21 7 -2 3 -5 -8 -5 -15 -1 -16 -4 -7 -13 7 -7 12 -21 12 -31 0
-11 8 -26 18 -34 16 -14 16 -14 -3 -8 -35 12 -61 16 -32 4 15 -6 27 -16 27
-22 0 -7 13 -23 29 -36 19 -16 27 -30 24 -42 -6 -21 7 -25 25 -7 8 8 15 8 25
-1 12 -9 16 -8 22 6 5 10 7 21 7 26 -1 4 2 7 8 7 14 0 13 -23 -3 -52 -10 -21
-15 -23 -25 -11 -18 18 -35 16 -49 -7 -11 -16 -10 -18 4 -13 11 4 14 3 9 -5
-5 -8 0 -12 13 -12 12 0 21 -6 21 -13 0 -10 13 -14 44 -12 41 1 45 -1 50 -26
4 -20 12 -28 36 -31 16 -3 30 -1 30 4 0 4 5 8 12 8 6 0 1 -11 -11 -24 -17 -18
-19 -25 -9 -29 7 -3 -2 -3 -20 0 -31 5 -34 4 -31 -18 2 -13 1 -29 -3 -34 -11
-17 19 -75 39 -75 13 0 22 13 32 45 12 42 41 63 41 30 0 -24 20 -17 21 8 0 22
1 21 12 -3 12 -25 36 -49 50 -50 4 0 7 10 7 23 1 21 1 21 12 2 7 -11 13 -25
14 -30 2 -15 56 -70 75 -77 9 -3 27 -31 40 -61 19 -44 33 -60 68 -79 60 -32
99 -67 83 -77 -6 -4 4 -7 23 -7 19 0 35 3 35 6 0 4 16 6 35 6 19 -1 35 -5 35
-11 0 -5 11 -11 25 -11 14 -1 25 2 25 7 0 5 7 9 15 9 19 0 19 -14 1 -29 -8 -7
-26 -9 -43 -6 l-28 7 29 -16 c29 -16 29 -16 80 34 42 41 48 52 36 60 -11 7 -7
10 18 10 25 0 35 5 39 19 3 12 17 23 35 27 20 4 26 9 18 14 -10 6 -9 14 3 39
14 28 14 33 1 38 -7 3 -14 10 -14 15 0 6 -13 26 -30 44 -35 40 -47 79 -31 98
10 11 8 17 -6 25 -10 6 -14 11 -9 11 4 0 2 10 -6 23 -22 35 -22 77 1 77 10 0
22 7 25 16 5 13 1 15 -19 10 -14 -4 -25 -2 -25 3 0 5 -3 17 -6 26 -5 12 -2 16
11 13 10 -2 20 3 23 11 3 8 0 11 -6 7 -13 -8 -25 25 -16 47 4 13 10 14 24 7
25 -13 30 -13 24 3 -2 7 10 23 27 36 18 13 28 17 24 10 -7 -11 -4 -11 11 1 37
29 44 39 44 60 0 13 8 24 20 27 11 3 18 9 15 13 -2 4 7 5 20 2 19 -3 25 0 25
13 0 14 6 17 34 12 36 -6 49 7 55 53 0 6 11 10 24 10 30 1 82 44 72 60 -5 9
-4 11 3 6 8 -5 12 0 12 13 0 11 4 23 10 26 6 4 7 -1 3 -11 -6 -15 -4 -15 21 1
19 13 23 21 16 30 -14 17 8 41 45 49 27 6 28 5 12 -8 -16 -12 -15 -14 15 -20
22 -4 37 -2 47 9 14 14 14 15 -9 13 -29 -4 -38 22 -15 45 17 18 19 27 6 27 -5
0 -13 -9 -16 -20 -3 -11 -11 -20 -17 -20 -7 0 -6 5 2 15 6 8 8 20 4 27 -4 7
-4 10 1 6 15 -14 55 44 56 84 l0 23 10 -24 c6 -16 6 -28 -2 -37 -13 -16 -4
-48 11 -39 5 3 10 15 10 26 0 10 6 19 13 19 18 0 47 32 47 52 0 9 7 21 15 28
8 7 16 24 16 39 2 23 2 24 6 4 5 -26 40 -32 49 -9 3 8 19 18 35 21 16 4 29 10
29 15 0 4 10 10 21 13 16 4 20 11 16 26 -4 18 -2 19 14 10 20 -10 49 7 49 30
0 6 6 11 14 11 7 0 25 11 40 25 15 14 32 25 38 25 6 0 8 9 5 19 -3 13 2 21 16
25 17 4 18 7 7 21 -8 9 -16 12 -19 6 -4 -5 -19 -13 -35 -17 -20 -5 -27 -4 -22
4 4 7 -4 11 -24 9 -24 -2 -29 -5 -24 -22 3 -11 2 -15 -3 -9 -14 19 -41 23 -53
8 -7 -8 -19 -14 -26 -14 -8 0 -14 -8 -15 -17 0 -12 -2 -13 -6 -5 -3 7 0 19 6
26 13 15 5 26 -20 26 -9 0 -20 6 -23 13 -4 6 -4 1 -2 -12 5 -26 -8 -53 -41
-88 -19 -20 -29 -23 -57 -18 -29 6 -35 4 -41 -14 -3 -12 -10 -21 -15 -21 -5 0
-7 -8 -4 -17 5 -15 3 -15 -10 1 -15 19 -16 19 -17 -10 l-1 -29 -13 30 c-11 25
-15 27 -20 13 -4 -10 -11 -15 -16 -12 -5 3 -9 -2 -9 -12 0 -14 -3 -14 -15 -4
-18 15 -85 23 -85 11 0 -5 7 -11 15 -15 8 -3 15 -10 15 -16 0 -6 -7 -4 -16 4
-20 20 -28 20 -50 -1 -17 -17 -18 -17 -11 -1 15 39 19 53 10 42 -4 -6 -21 -14
-38 -17 -16 -4 -39 -9 -51 -13 -13 -3 -27 1 -37 11 -9 9 -33 19 -52 22 -28 4
-35 2 -35 -11 0 -17 -13 -19 -94 -18 -27 1 -54 6 -60 12 -5 5 -18 10 -28 10
-10 0 -18 5 -18 11 0 7 -9 9 -22 6 -25 -7 -58 8 -58 27 0 19 -48 49 -70 43
-10 -2 -24 -1 -31 4 -12 8 -11 11 3 19 14 9 13 14 -14 45 -17 19 -35 32 -40
29 -4 -3 -8 1 -8 8 0 10 -2 10 -9 -1 -6 -9 -15 -11 -27 -6 -11 5 -23 9 -27 9
-14 2 -27 30 -27 59 0 15 -5 27 -11 27 -5 0 -7 5 -3 12 5 8 2 9 -12 3 -37 -15
-59 -11 -57 10 1 11 -5 24 -13 28 -14 8 -13 11 2 28 9 10 13 20 8 20 -5 1 -16
2 -24 3 -8 0 -15 8 -15 17 0 8 -8 23 -17 33 -10 10 -18 32 -18 50 0 19 -7 39
-15 46 -8 7 -15 19 -15 26 0 8 -7 14 -15 14 -8 0 -15 -4 -15 -10 0 -5 5 -10
10 -10 6 0 10 -6 10 -12 -1 -7 -9 -3 -19 9 -10 12 -21 19 -25 16 -3 -4 -6 -2
-6 4 0 6 7 13 15 17 27 10 18 59 -15 81 -22 15 -28 25 -23 40 5 18 4 18 -11 6
-12 -10 -14 -17 -5 -27 13 -15 5 -44 -11 -44 -6 0 -8 5 -5 10 9 15 -14 40 -37
40 -10 0 -17 4 -14 9 3 5 -2 24 -11 42 l-17 34 -7 -25 c-4 -16 -7 -19 -8 -7
-1 11 -10 17 -28 18 -17 1 -21 3 -10 6 26 7 21 23 -7 21 -14 -1 -24 -5 -24 -8
2 -22 -4 -40 -11 -36 -11 7 -3 45 13 65 13 17 17 41 5 41 -5 0 -9 -9 -9 -21 0
-15 -4 -19 -16 -15 -10 4 -22 -1 -30 -11 -10 -13 -13 -14 -14 -4 0 20 -41 53
-58 46 -12 -4 -13 -3 -2 10 10 12 10 15 -4 15 -10 0 -16 8 -16 23 0 12 -9 37
-20 55 -11 18 -20 39 -20 47 0 8 -4 15 -8 15 -5 0 -15 19 -23 42 -10 32 -11
42 -1 46 7 2 10 8 6 13 -3 5 -13 5 -25 -1 -16 -9 -19 -7 -19 10 0 11 0 23 -1
27 0 4 4 9 10 11 6 2 8 -3 5 -12 -5 -12 -2 -15 10 -10 9 3 16 9 16 13 0 11
-40 41 -55 41 -19 0 -21 56 -2 64 8 3 7 9 -7 20 -14 11 -17 22 -11 43 4 15 8
42 10 58 5 54 17 110 27 122 6 7 8 26 6 43 -3 16 -1 30 3 30 12 0 17 53 7 79
-6 15 -10 36 -9 49 1 29 -23 39 -62 24 -22 -8 -27 -8 -20 -1 6 6 9 18 6 27 -5
12 -1 14 22 8 25 -6 27 -5 16 8 -7 9 -11 23 -7 31 7 18 -5 20 -22 3 -9 -9 -12
-2 -12 33 -1 39 -2 42 -14 27 -7 -10 -16 -18 -20 -18 -11 0 -6 28 7 33 7 2 8
8 3 13 -5 5 -11 4 -13 -3 -6 -18 -30 -16 -37 2 -4 11 2 15 20 15 14 0 22 4 19
10 -10 16 -40 12 -58 -8z m22 -941 c7 -5 10 -14 7 -20 -4 -6 2 -24 13 -40 12
-16 21 -35 20 -43 0 -10 -2 -10 -6 0 -5 14 -33 17 -33 3 0 -5 4 -11 9 -13 4
-1 12 -14 16 -28 7 -21 6 -23 -7 -13 -8 7 -18 11 -22 8 -3 -3 -2 0 2 5 5 6 0
30 -13 56 -12 25 -20 56 -17 70 5 26 10 28 31 15z m-134 -11 c3 -5 -1 -10 -10
-10 -9 0 -13 5 -10 10 3 6 8 10 10 10 2 0 7 -4 10 -10z m35 -31 c0 -5 4 -8 9
-4 6 3 9 -3 8 -14 -1 -20 -1 -20 -19 -1 -20 22 -23 30 -8 30 6 0 10 -5 10 -11z
m75 -59 c3 -5 2 -10 -4 -10 -5 0 -13 5 -16 10 -3 6 -2 10 4 10 5 0 13 -4 16
-10z m-95 -10 c0 -5 -4 -10 -10 -10 -5 0 -10 5 -10 10 0 6 5 10 10 10 6 0 10
-4 10 -10z m185 -10 c3 -5 1 -10 -4 -10 -6 0 -11 5 -11 10 0 6 2 10 4 10 3 0
8 -4 11 -10z m590 -389 c3 -5 1 -12 -5 -16 -5 -3 -10 1 -10 9 0 18 6 21 15 7z
m1475 -356 c0 -3 -9 -5 -20 -5 -15 0 -20 7 -20 25 l0 25 20 -20 c11 -11 20
-22 20 -25z m-240 -55 c0 -5 -7 -10 -15 -10 -8 0 -15 5 -15 10 0 6 7 10 15 10
8 0 15 -4 15 -10z m-36 -195 c-19 -30 -34 -32 -34 -6 0 17 12 25 43 30 4 0 0
-10 -9 -24z m-584 -494 c0 -5 -9 -7 -20 -4 -11 3 -20 7 -20 9 0 2 9 4 20 4 11
0 20 -4 20 -9z m-960 -101 c0 -5 -5 -10 -11 -10 -5 0 -7 5 -4 10 3 6 8 10 11
10 2 0 4 -4 4 -10z m140 -54 c0 -3 -4 -8 -10 -11 -5 -3 -10 -1 -10 4 0 6 5 11
10 11 6 0 10 -2 10 -4z m73 -137 c-10 -20 -19 -27 -25 -21 -15 15 1 52 22 52
17 0 18 -2 3 -31z"/>
<path d="M2560 4000 c0 -11 5 -20 10 -20 6 0 10 9 10 20 0 11 -4 20 -10 20 -5
0 -10 -9 -10 -20z"/>
<path d="M3040 3990 c0 -5 4 -10 9 -10 6 0 13 5 16 10 3 6 -1 10 -9 10 -9 0
-16 -4 -16 -10z"/>
<path d="M4085 3893 c-44 -23 -84 -63 -79 -78 4 -10 23 -12 74 -8 67 5 68 4
109 -32 22 -21 47 -35 54 -32 19 7 19 67 -1 107 -28 58 -95 76 -157 43z"/>
<path d="M4698 3640 c12 -11 27 -20 34 -20 15 1 -29 40 -45 40 -6 0 -1 -9 11
-20z"/>
<path d="M2265 3497 c-14 -11 -15 -16 -5 -22 11 -7 29 9 30 28 0 10 -3 9 -25
-6z"/>
<path d="M2290 3463 c0 -12 7 -23 15 -27 13 -5 14 -2 4 17 -17 32 -19 33 -19
10z"/>
<path d="M2928 3443 c7 -3 16 -2 19 1 4 3 -2 6 -13 5 -11 0 -14 -3 -6 -6z"/>
<path d="M2268 3403 c-23 -4 -28 -9 -28 -33 0 -16 5 -32 10 -35 6 -4 17 -22
25 -41 15 -37 28 -42 52 -19 27 28 12 137 -19 134 -7 -1 -25 -4 -40 -6z"/>
<path d="M4870 3398 c0 -7 5 -20 10 -28 8 -12 10 -11 10 7 0 12 -4 25 -10 28
-5 3 -10 0 -10 -7z"/>
<path d="M2640 3354 c0 -10 31 -36 37 -31 10 10 -6 37 -22 37 -8 0 -15 -3 -15
-6z"/>
<path d="M2800 3350 c0 -5 5 -10 10 -10 6 0 10 5 10 10 0 6 -4 10 -10 10 -5 0
-10 -4 -10 -10z"/>
<path d="M4881 3324 c0 -11 3 -14 6 -6 3 7 2 16 -1 19 -3 4 -6 -2 -5 -13z"/>
<path d="M4138 3263 c7 -3 16 -2 19 1 4 3 -2 6 -13 5 -11 0 -14 -3 -6 -6z"/>
<path d="M4225 3240 c3 -5 16 -10 28 -9 21 0 21 1 2 9 -28 12 -37 12 -30 0z"/>
<path d="M2835 3190 c3 -5 8 -10 11 -10 2 0 4 5 4 10 0 6 -5 10 -11 10 -5 0
-7 -4 -4 -10z"/>
<path d="M3120 2922 c0 -18 4 -32 9 -32 5 0 16 -3 25 -6 25 -10 19 19 -9 46
l-25 23 0 -31z"/>
<path d="M3579 2903 c-10 -3 -19 -23 -26 -58 -9 -51 -8 -55 11 -61 12 -3 49
-19 84 -35 72 -34 72 -34 72 -14 0 8 5 15 10 15 6 0 10 -4 10 -9 0 -5 15 -14
33 -20 29 -10 33 -16 33 -46 0 -24 -5 -35 -15 -35 -11 0 -12 -3 -4 -11 8 -8
17 -7 32 3 17 10 25 10 41 0 11 -6 34 -11 52 -11 28 1 29 2 8 6 -46 8 -48 24
-2 21 23 -2 42 -8 42 -14 0 -6 12 -9 28 -6 18 2 29 10 29 20 0 27 -25 45 -52
38 -18 -5 -25 -1 -29 14 -3 11 -8 28 -11 38 -4 14 5 23 34 38 22 10 45 27 51
38 20 32 -8 40 -143 37 -26 0 -66 7 -89 16 -29 11 -43 13 -45 6 -5 -15 -68 -5
-108 17 -16 9 -37 15 -46 13z"/>
<path d="M3162 2861 c2 -7 7 -12 11 -12 12 1 9 15 -3 20 -7 2 -11 -2 -8 -8z"/>
<path d="M3476 2852 c-3 -6 -1 -14 5 -17 15 -10 25 3 12 16 -7 7 -13 7 -17 1z"/>
<path d="M3197 2833 c-4 -3 -7 -11 -7 -17 0 -6 5 -5 12 2 6 6 9 14 7 17 -3 3
-9 2 -12 -2z"/>
<path d="M3445 2800 c3 -5 10 -10 16 -10 5 0 9 5 9 10 0 6 -7 10 -16 10 -8 0
-12 -4 -9 -10z"/>
<path d="M3995 2769 c-4 -6 -5 -12 -2 -15 2 -3 7 2 10 11 7 17 1 20 -8 4z"/>
<path d="M3770 2659 c0 -5 5 -7 10 -4 6 3 10 8 10 11 0 2 -4 4 -10 4 -5 0 -10
-5 -10 -11z"/>
<path d="M4994 2344 c5 -13 1 -15 -19 -12 -18 4 -26 0 -30 -13 -4 -11 -13 -19
-21 -19 -8 0 -14 -4 -14 -9 0 -17 20 -23 35 -11 8 6 19 9 25 5 6 -3 10 3 10
15 0 16 5 20 15 16 8 -3 15 -1 15 5 0 6 7 9 15 5 10 -4 15 1 15 14 0 15 -7 20
-26 20 -20 0 -25 -4 -20 -16z"/>
<path d="M4290 2150 c0 -5 4 -10 9 -10 6 0 13 5 16 10 3 6 -1 10 -9 10 -9 0
-16 -4 -16 -10z"/>
<path d="M4375 2139 c-4 -6 -5 -13 -2 -16 7 -7 27 6 27 18 0 12 -17 12 -25 -2z"/>
<path d="M4490 1874 c0 -8 5 -12 10 -9 6 3 10 10 10 16 0 5 -4 9 -10 9 -5 0
-10 -7 -10 -16z"/>
<path d="M4444 1842 c3 -5 0 -12 -6 -15 -7 -2 -10 -7 -7 -11 3 -4 12 0 18 8 9
11 9 16 0 22 -7 4 -9 3 -5 -4z"/>
<path d="M5390 1633 c0 -14 45 -53 129 -113 82 -59 110 -105 111 -176 0 -43
-33 -164 -54 -199 -7 -11 -18 -40 -25 -65 -61 -214 -386 -502 -769 -682 -209
-98 -432 -160 -712 -198 -112 -15 -416 -17 -505 -2 -38 6 -89 14 -112 16 -50
6 -172 65 -173 84 0 6 -5 12 -11 12 -5 0 -7 -4 -4 -10 3 -5 3 -10 0 -10 -9 0
-31 23 -33 35 -1 6 -18 10 -38 9 -32 0 -35 2 -29 23 5 20 2 23 -25 23 -17 0
-29 4 -26 9 3 4 -19 28 -49 52 -50 40 -54 45 -35 53 23 10 26 38 8 58 -15 15
-22 58 -9 58 12 0 23 -29 15 -41 -3 -5 2 -9 10 -9 9 0 16 -9 16 -20 0 -11 5
-20 10 -20 6 0 10 5 10 10 0 6 5 10 10 10 6 0 10 -16 10 -35 0 -19 -4 -35 -10
-35 -5 0 -10 -7 -10 -15 0 -22 21 -18 27 5 5 20 7 20 24 4 17 -15 19 -15 25
-1 6 17 -11 57 -26 57 -5 0 -8 13 -8 29 1 40 -11 57 -26 35 -11 -14 -15 -14
-21 -4 -5 9 -4 15 3 18 7 2 12 10 12 17 0 7 6 16 13 19 6 3 1 3 -13 -1 -41
-11 -66 -7 -93 17 -22 19 -24 26 -15 43 8 15 8 22 0 25 -6 2 -9 9 -6 16 3 8
-4 16 -16 19 -17 4 -20 2 -15 -14 5 -15 1 -19 -22 -21 -15 0 -39 0 -51 1 -16
1 -21 -2 -17 -10 4 -6 1 -15 -6 -20 -11 -7 -11 -9 -1 -9 7 0 15 7 18 15 5 13
8 13 21 0 13 -13 12 -17 -3 -32 -10 -10 -20 -18 -23 -18 -3 0 -5 -20 -6 -43 0
-24 1 -38 3 -32 3 7 13 3 28 -11 28 -26 31 -39 9 -39 -8 0 -15 5 -15 10 0 6
-4 10 -10 10 -5 0 -10 -6 -10 -14 0 -7 -9 -16 -20 -19 -13 -3 -20 0 -20 9 0 8
-4 14 -10 14 -5 0 -10 7 -10 15 0 20 -10 19 -26 -2 -8 -10 -14 -13 -14 -6 0 7
-21 31 -46 55 -25 24 -52 55 -60 70 -8 16 -18 27 -22 27 -22 -4 -33 4 -42 26
-5 14 -18 29 -27 32 -21 8 -52 43 -53 59 0 6 -8 22 -18 35 -14 18 -19 45 -21
109 -2 47 -7 87 -12 88 -5 2 -9 16 -9 30 -1 35 -33 98 -48 95 -7 -2 -11 10
-10 30 0 17 -5 52 -12 76 -19 71 5 105 132 191 111 75 112 83 7 74 -91 -7
-193 -39 -267 -83 -49 -29 -81 -39 -142 -47 -64 -8 -184 -53 -265 -101 -115
-66 -169 -92 -228 -107 -29 -8 -72 -22 -97 -31 -25 -9 -61 -23 -81 -30 -20 -8
-73 -32 -117 -55 -44 -22 -85 -40 -91 -40 -24 0 -131 -62 -131 -77 0 -9 -6
-13 -14 -10 -8 3 -31 -3 -52 -13 -22 -10 -70 -32 -109 -50 -118 -54 -155 -73
-155 -82 0 -4 -11 -8 -25 -8 -14 0 -57 -16 -95 -35 -38 -19 -75 -35 -82 -35
-7 0 -25 -6 -39 -14 -14 -7 -39 -16 -55 -20 -35 -8 -93 -36 -112 -54 -7 -6
-19 -13 -25 -14 -12 -1 -24 -4 -42 -8 -5 -2 -15 -4 -20 -4 -6 -1 -26 -14 -46
-29 -21 -15 -43 -25 -52 -22 -8 4 -18 2 -21 -3 -3 -6 -15 -8 -26 -5 -11 3 -20
1 -20 -5 0 -6 -16 -14 -35 -18 -19 -3 -39 -12 -46 -20 -6 -8 -18 -14 -25 -14
-12 0 -14 -44 -14 -250 l0 -250 3840 0 3840 0 0 294 c0 288 0 295 -21 301 -17
6 -18 9 -8 22 11 13 9 14 -17 12 -52 -5 -112 12 -117 32 -3 12 -14 19 -28 19
-12 0 -30 7 -40 16 -19 18 -55 12 -43 -7 4 -8 -1 -9 -17 -4 -34 10 -35 13 -13
29 17 13 16 15 -21 21 -22 3 -47 10 -55 14 -9 5 -20 3 -28 -5 -15 -16 -42 -19
-42 -5 0 6 5 13 10 16 17 10 11 25 -10 25 -16 0 -19 -5 -13 -30 4 -23 2 -30
-11 -30 -9 0 -16 5 -16 10 0 6 -11 10 -25 10 -38 0 -32 28 7 32 46 4 49 28 3
28 -25 0 -34 4 -29 11 5 8 -1 10 -19 7 -26 -5 -57 16 -43 29 10 10 -46 43 -73
43 -13 0 -30 8 -37 18 -13 16 -13 16 -14 0 0 -10 -5 -18 -11 -18 -7 0 -9 10
-5 25 6 21 3 25 -18 25 -13 0 -26 7 -30 15 -3 8 -10 15 -16 15 -6 0 -2 -10 10
-22 22 -24 25 -34 11 -43 -5 -3 -13 5 -17 17 -4 13 -12 26 -18 30 -18 12 -91
9 -105 -4 -11 -11 -13 -8 -9 15 6 33 -7 46 -16 15 -4 -18 -8 -20 -18 -10 -6 6
-23 12 -38 12 -29 1 -53 17 -63 44 -6 14 -4 17 8 12 9 -3 14 -2 13 2 -27 56
-33 63 -53 60 -21 -5 -45 12 -45 32 0 5 -4 10 -10 10 -5 0 -10 -9 -10 -20 0
-11 -5 -20 -11 -20 -5 0 -8 4 -5 9 3 4 -1 16 -8 27 -8 10 -12 25 -9 34 4 12 3
13 -5 1 -8 -12 -15 -10 -37 8 -15 11 -40 21 -56 21 -15 0 -29 4 -31 9 -1 5
-31 22 -65 39 -59 28 -62 29 -67 9 -4 -18 -6 -18 -20 -4 -9 9 -16 18 -16 21 0
2 -5 17 -11 33 -7 20 -12 24 -18 14 -6 -9 -10 -6 -14 11 -4 16 -22 30 -57 46
-57 24 -76 27 -85 12 -3 -5 -10 -10 -16 -10 -5 0 -9 5 -9 10 0 6 7 10 16 10 8
0 12 5 9 10 -3 6 -15 10 -27 10 -15 0 -19 -5 -15 -20 6 -24 -5 -33 -28 -24
-16 6 -16 18 0 56 9 21 -48 36 -71 17 -16 -13 -22 -10 -38 23 -8 16 -22 24
-44 26 -20 2 -32 9 -32 18 0 8 -5 14 -10 14 -6 0 -27 11 -48 24 -72 47 -302
108 -302 79z m841 -486 c-16 -16 -26 0 -10 19 9 11 15 12 17 4 2 -6 -1 -17 -7
-23z m809 -286 c0 -5 -7 -12 -16 -15 -14 -5 -15 -4 -4 9 14 17 20 19 20 6z
m-290 -5 c0 -3 -4 -8 -10 -11 -5 -3 -10 -1 -10 4 0 6 5 11 10 11 6 0 10 -2 10
-4z m-3807 -224 c-5 -10 -1 -13 13 -8 10 3 26 1 34 -4 12 -8 12 -10 -5 -10
-11 -1 -34 -3 -51 -4 -18 -2 -37 0 -44 4 -22 13 -4 37 28 37 22 0 29 -4 25
-15z m37 -51 c0 -6 -4 -13 -10 -16 -5 -3 -10 1 -10 9 0 9 5 16 10 16 6 0 10
-4 10 -9z m0 -61 c0 -5 -4 -10 -10 -10 -5 0 -10 5 -10 10 0 6 5 10 10 10 6 0
10 -4 10 -10z m2990 -400 c0 -5 -2 -10 -4 -10 -3 0 -8 5 -11 10 -3 6 -1 10 4
10 6 0 11 -4 11 -10z"/>
<path d="M4030 1509 c0 -5 5 -7 10 -4 6 3 10 8 10 11 0 2 -4 4 -10 4 -5 0 -10
-5 -10 -11z"/>
<path d="M2865 1360 c3 -5 11 -10 16 -10 6 0 7 5 4 10 -3 6 -11 10 -16 10 -6
0 -7 -4 -4 -10z"/>
<path d="M3020 1175 c0 -8 5 -15 10 -15 6 0 10 7 10 15 0 8 -4 15 -10 15 -5 0
-10 -7 -10 -15z"/>
<path d="M6656 1057 c3 -10 9 -15 12 -12 3 3 0 11 -7 18 -10 9 -11 8 -5 -6z"/>
<path d="M6708 1043 c6 -2 18 -2 25 0 6 3 1 5 -13 5 -14 0 -19 -2 -12 -5z"/>
<path d="M6752 1038 c2 -6 13 -16 24 -22 10 -6 22 -15 25 -20 8 -10 29 1 29
15 0 5 -9 9 -20 9 -11 0 -23 7 -26 15 -7 18 -38 21 -32 3z"/>
<path d="M2858 793 c7 -3 16 -2 19 1 4 3 -2 6 -13 5 -11 0 -14 -3 -6 -6z"/>
<path d="M2960 785 c0 -8 4 -15 10 -15 5 0 7 7 4 15 -4 8 -8 15 -10 15 -2 0
-4 -7 -4 -15z"/>
<path d="M2830 750 c0 -5 5 -10 11 -10 5 0 7 5 4 10 -3 6 -8 10 -11 10 -2 0
-4 -4 -4 -10z"/>
<path d="M2920 745 c0 -8 2 -15 4 -15 2 0 6 7 10 15 3 8 1 15 -4 15 -6 0 -10
-7 -10 -15z"/>
<path d="M3075 490 c-3 -5 -1 -10 4 -10 6 0 11 5 11 10 0 6 -2 10 -4 10 -3 0
-8 -4 -11 -10z"/>
</g>
</svg>
